<?xml version="1.0" encoding="utf-8"?>
<!-- Generator: Adobe Illustrator 24.1.1, SVG Export Plug-In . SVG Version: 6.00 Build 0)  -->
<svg version="1.1" id="Capa_1" xmlns="http://www.w3.org/2000/svg" xmlns:xlink="http://www.w3.org/1999/xlink" x="0px" y="0px"
	 viewBox="0 0 203 67.9" style="enable-background:new 0 0 203 67.9;" xml:space="preserve">
<style type="text/css">
	.st0{fill:#00AAFF;}
	.st1{enable-background:new    ;}
	.st2{fill:#CCF2FF;}
</style>
<g id="Capa_2_1_">
	<g id="Capa_2-2">
		<g>
			<path class="st0" d="M17.7,53.9c-2,0-3.7-1.7-3.7-3.7l0,0v-5.5c0-2,1.7-3.7,3.7-3.7c0,0,0,0,0,0h22.2l-6.8-14H17.7
				c-2,0-3.7-1.7-3.7-3.7c0,0,0,0,0,0v-5.6c0-2,1.7-3.7,3.7-3.7c0,0,0,0,0,0h9.1L20,0H3.7C1.7,0,0,1.7,0,3.7v60.5
				c0,2,1.7,3.7,3.7,3.7H53l-6.8-14L17.7,53.9z"/>
		</g>
		<g>
			<path class="st0" d="M66.1,0H26.4l6.8,14h18.8c2,0,3.7,1.7,3.7,3.7l0,0v5.6c0,2-1.7,3.7-3.7,3.7l0,0H39.6l6.8,14h5.7
				c2,0,3.7,1.7,3.7,3.7l0,0v23.2h14V3.7C69.8,1.7,68.1,0,66.1,0C66.1,0,66.1,0,66.1,0z"/>
		</g>
		<g class="st1">
			<path class="st2" d="M108.7,23.1h-7.1v4.8h8.3v3h-12V12.9h12v3h-8.3v4.3h7.1V23.1z"/>
			<path class="st2" d="M116.6,30.9V12.9h5.5c1.6,0,3,0.4,4.2,1.1c1.2,0.7,2.2,1.7,2.9,3c0.7,1.3,1,2.8,1,4.5v0.8
				c0,1.7-0.3,3.1-1,4.4c-0.7,1.3-1.7,2.3-2.9,3c-1.2,0.7-2.7,1.1-4.2,1.1H116.6z M120.3,15.9v12h1.8c1.4,0,2.5-0.5,3.3-1.4
				c0.8-0.9,1.2-2.3,1.2-4v-0.9c0-1.8-0.4-3.2-1.1-4.1c-0.8-0.9-1.9-1.4-3.3-1.4H120.3z"/>
			<path class="st2" d="M151.7,28.6c-0.7,0.8-1.6,1.4-2.8,1.9c-1.2,0.4-2.6,0.7-4,0.7c-1.6,0-2.9-0.3-4.1-1
				c-1.2-0.7-2.1-1.7-2.7-2.9c-0.6-1.3-1-2.8-1-4.5v-1.2c0-1.8,0.3-3.3,0.9-4.6c0.6-1.3,1.5-2.3,2.6-3s2.5-1,4-1
				c2.1,0,3.8,0.5,5,1.5s1.9,2.5,2.1,4.4h-3.6c-0.2-1-0.5-1.8-1.1-2.3c-0.6-0.5-1.3-0.7-2.3-0.7c-1.3,0-2.2,0.5-2.9,1.4
				c-0.7,0.9-1,2.3-1,4.2v1.1c0,1.9,0.4,3.3,1.1,4.3c0.7,1,1.8,1.4,3.1,1.4c1.4,0,2.4-0.3,3-0.9v-3.1h-3.4v-2.7h7.1V28.6z"/>
			<path class="st2" d="M169.4,27.2h-6.5l-1.2,3.7h-3.9l6.7-17.9h3.4l6.7,17.9h-3.9L169.4,27.2z M163.9,24.2h4.5l-2.3-6.7
				L163.9,24.2z"/>
			<path class="st2" d="M187.4,24.3h-2.9v6.6h-3.7V12.9h6.7c2.1,0,3.8,0.5,4.9,1.4c1.1,0.9,1.7,2.3,1.7,4c0,1.2-0.3,2.2-0.8,3.1
				s-1.3,1.5-2.4,2l3.9,7.3v0.2h-4L187.4,24.3z M184.5,21.3h3c0.9,0,1.6-0.2,2.2-0.7s0.8-1.1,0.8-2c0-0.8-0.2-1.5-0.7-2
				c-0.5-0.5-1.2-0.7-2.2-0.7h-3V21.3z"/>
		</g>
		<g class="st1">
			<path class="st2" d="M108.7,53.8h-7.1v7.3h-3.7V43.2h11.7v3h-8v4.6h7.1V53.8z"/>
			<path class="st2" d="M127.1,53.3H120v4.8h8.3v3h-12V43.2h12v3H120v4.3h7.1V53.3z"/>
			<path class="st2" d="M138.7,58.1h7.8v3H135V43.2h3.7V58.1z"/>
			<path class="st2" d="M157.1,61.1h-3.7V43.2h3.7V61.1z"/>
			<path class="st2" d="M168.8,54.8v6.3h-3.7V43.2h7c1.3,0,2.5,0.2,3.6,0.7c1,0.5,1.8,1.2,2.4,2.1c0.5,0.9,0.8,1.9,0.8,3.1
				c0,1.8-0.6,3.1-1.8,4.2s-2.9,1.5-5,1.5H168.8z M168.8,51.8h3.3c1,0,1.7-0.2,2.2-0.7c0.5-0.5,0.8-1.1,0.8-2c0-0.9-0.3-1.6-0.8-2.1
				c-0.5-0.5-1.2-0.8-2.1-0.8h-3.4V51.8z"/>
			<path class="st2" d="M196.6,53.3h-7.1v4.8h8.3v3h-12V43.2h12v3h-8.3v4.3h7.1V53.3z"/>
		</g>
		<g>
			<rect x="83.7" class="st0" width="2" height="67.9"/>
		</g>
	</g>
</g>
</svg>
