<svg xmlns="http://www.w3.org/2000/svg" viewBox="0 0 202.99 67.94"><defs><style>.cls-1{fill:#0af;}.cls-2{font-size:25.21px;fill:#ccf2ff;font-family:Roboto-Bold, Roboto;font-weight:700;letter-spacing:0.18em;}.cls-3{letter-spacing:0.18em;}.cls-4{fill:none;stroke:#0af;stroke-miterlimit:10;stroke-width:2px;}</style></defs><g id="Capa_2" data-name="Capa 2"><g id="Capa_2-2" data-name="Capa 2"><path class="cls-1" d="M17.7,53.9A3.7,3.7,0,0,1,14,50.2V44.7A3.7,3.7,0,0,1,17.7,41H39.93L33.11,27H17.7A3.7,3.7,0,0,1,14,23.3V17.7A3.7,3.7,0,0,1,17.7,14h9.08L20,0H3.7A3.7,3.7,0,0,0,0,3.7V64.2a3.7,3.7,0,0,0,3.7,3.7H53l-6.81-14Z"/><path class="cls-1" d="M66.06,0H26.42l6.81,14H52.06a3.7,3.7,0,0,1,3.7,3.7v5.6a3.7,3.7,0,0,1-3.7,3.7H39.56l6.82,14h5.68a3.7,3.7,0,0,1,3.7,3.7V67.9h14V3.7A3.7,3.7,0,0,0,66.06,0Z"/><text class="cls-2" transform="translate(96.32 30.85)">EDGAR<tspan class="cls-3"><tspan x="0" y="30.26">FELIPE</tspan></tspan></text><line class="cls-4" x1="84.71" x2="84.71" y2="67.9"/></g></g></svg>